<?xml version="1.0" encoding="UTF-8"?>
<svg version="1.1" xmlns="http://www.w3.org/2000/svg" width="200" height="200">
<path d="M0 0 C2.625 0.9375 2.625 0.9375 4.42578125 3.6953125 C6.78046601 7.166695 9.09843863 9.23391653 12.4375 11.75 C13.43394531 12.51957031 14.43039063 13.28914063 15.45703125 14.08203125 C18.95923707 16.13326154 21.63156617 16.49860812 25.625 16.9375 C27.5625 18.8125 27.5625 18.8125 28.625 20.9375 C28.625 21.9275 28.625 22.9175 28.625 23.9375 C29.34558594 24.20175781 30.06617188 24.46601562 30.80859375 24.73828125 C34.57027918 26.33999751 37.81489724 28.55088386 41.22265625 30.79296875 C43.4809765 32.09315434 43.4809765 32.09315434 45.61328125 31.87890625 C48.42696601 30.56221105 50.44527632 28.7651912 52.75 26.6875 C53.61882812 25.91921875 54.48765625 25.1509375 55.3828125 24.359375 C57.65550645 21.90454878 58.52824242 20.05020246 59.625 16.9375 C60.285 16.2775 60.945 15.6175 61.625 14.9375 C64.625 15 64.625 15 67.625 15.9375 C69.125 18.25 69.125 18.25 69.625 20.9375 C68.91015625 23.02734375 68.91015625 23.02734375 67.625 24.9375 C65.77734375 25.703125 65.77734375 25.703125 63.5625 26.1875 C57.65435077 27.88513379 53.90338875 31.67934004 49.625 35.9375 C53.48128967 43.31474981 58.63592295 52.2781153 65.625 56.9375 C65.8125 59.5625 65.8125 59.5625 65.625 61.9375 C63.15 62.4325 63.15 62.4325 60.625 62.9375 C60.16673828 62.11572266 60.16673828 62.11572266 59.69921875 61.27734375 C58.07025084 58.45532892 56.35840777 55.69673308 54.625 52.9375 C54.26535156 52.34855957 53.90570313 51.75961914 53.53515625 51.15283203 C46.5234417 39.86503399 38.54846192 33.70910742 26.625 27.9375 C26.295 27.9375 25.965 27.9375 25.625 27.9375 C25.295 35.8575 24.965 43.7775 24.625 51.9375 C26.605 52.4325 26.605 52.4325 28.625 52.9375 C30.73717434 56.10576151 30.762301 56.68885957 30.75 60.25 C31.01222572 63.22674758 31.29299301 64.56106954 33.2890625 66.82421875 C36.87809069 69.60000273 40.0166191 71.51855628 44.625 71.9375 C45.625 72.9375 45.625 72.9375 45.8125 75.875 C45.625 78.9375 45.625 78.9375 43.625 80.9375 C41.125 81.1875 41.125 81.1875 38.625 80.9375 C36.625 78.9375 36.625 78.9375 36.21875 77.046875 C35.02261797 72.79745858 31.28381476 70.14752234 27.625 67.9375 C25.17235378 67.58483192 23.15218522 67.64961137 20.703125 67.984375 C18.625 67.9375 18.625 67.9375 16.78637695 66.37963867 C14.7455777 64.70134648 14.7455777 64.70134648 12.38256836 65.08422852 C11.58471924 65.32584717 10.78687012 65.56746582 9.96484375 65.81640625 C9.08892578 66.07873047 8.21300781 66.34105469 7.31054688 66.61132812 C6.40369141 66.90458984 5.49683594 67.19785156 4.5625 67.5 C3.65177734 67.76619141 2.74105469 68.03238281 1.80273438 68.30664062 C-3.06236618 69.81600491 -5.40111864 70.70026406 -8.375 74.9375 C-10.75 75.875 -10.75 75.875 -13.375 75.9375 C-15.6581838 74.7959081 -17.56512683 73.74737317 -19.375 71.9375 C-19.41580783 69.93791636 -19.41754356 67.93704746 -19.375 65.9375 C-19.973125 65.64875 -20.57125 65.36 -21.1875 65.0625 C-23.375 63.9375 -23.375 63.9375 -26.375 61.9375 C-29.06212828 61.9509392 -29.06212828 61.9509392 -31.9375 62.375 C-37.17775716 63.03612142 -37.17775716 63.03612142 -39.375 61.9375 C-39.6225 62.63875 -39.87 63.34 -40.125 64.0625 C-41.375 66.9375 -41.375 66.9375 -43.375 69.875 C-45.51414592 72.83674138 -45.51414592 72.83674138 -46.375 76.25 C-47.375 78.9375 -47.375 78.9375 -49.3125 79.9375 C-51.375 79.9375 -51.375 79.9375 -54.375 77.9375 C-54.6875 75.4375 -54.6875 75.4375 -54.375 72.9375 C-53.385 71.9475 -53.385 71.9475 -52.375 70.9375 C-51.385 70.9375 -50.395 70.9375 -49.375 70.9375 C-49.1275 70.256875 -48.88 69.57625 -48.625 68.875 C-47.60012839 66.46655171 -46.53178911 64.60946832 -45.125 62.4375 C-42.99093924 59.14178764 -42.99093924 59.14178764 -44.125 56.1875 C-44.5375 55.445 -44.95 54.7025 -45.375 53.9375 C-45.375 52.9475 -45.375 51.9575 -45.375 50.9375 C-45.97828125 50.74414062 -46.5815625 50.55078125 -47.203125 50.3515625 C-48.00234375 50.09117188 -48.8015625 49.83078125 -49.625 49.5625 C-50.80835938 49.17964844 -50.80835938 49.17964844 -52.015625 48.7890625 C-54.375 47.9375 -54.375 47.9375 -56.41796875 46.8359375 C-58.64241318 45.81473547 -60.01498642 45.788135 -62.4375 45.9375 C-66.375 45.9375 -66.375 45.9375 -69.375 43.9375 C-69.75 40.4375 -69.75 40.4375 -69.375 36.9375 C-66.375 34.9375 -66.375 34.9375 -63.375 35 C-60.375 35.9375 -60.375 35.9375 -59.02734375 38.31640625 C-57.01658889 41.50604339 -55.36089179 42.3167983 -51.9375 43.8125 C-50.99003906 44.24304688 -50.04257812 44.67359375 -49.06640625 45.1171875 C-46.20524101 45.98924077 -45.09695741 46.05864594 -42.375 44.9375 C-41.385 44.2775 -40.395 43.6175 -39.375 42.9375 C-37.66266312 43.0245204 -35.95324594 43.17847162 -34.25 43.375 C-29.16598358 43.4833146 -26.88921631 42.3479256 -23.1875 38.875 C-20.57798953 35.94046154 -18.82891454 33.88014797 -18.8125 29.875 C-18.998125 28.905625 -19.18375 27.93625 -19.375 26.9375 C-19.90867188 26.76734375 -20.44234375 26.5971875 -20.9921875 26.421875 C-25.27122974 25.03007579 -29.38263801 23.50621205 -33.5 21.6875 C-37.8932943 19.86605656 -40.67342946 20.0912173 -45.375 20.9375 C-47.8125 19.875 -47.8125 19.875 -49.375 17.9375 C-49.875 15 -49.875 15 -49.375 11.9375 C-47.39613939 9.15243692 -46.21567767 8.12665248 -42.875 7.375 C-39.3352944 8.17143376 -38.4099413 10.0207508 -36.375 12.9375 C-33.65650664 16.30586888 -29.90116831 17.83809803 -26.0625 19.625 C-25.41087891 19.94533203 -24.75925781 20.26566406 -24.08789062 20.59570312 C-20.01771281 22.50652734 -16.96619705 23.31476115 -12.375 22.9375 C-11.21717535 20.58859726 -10.07378829 18.23429918 -8.9375 15.875 C-8.61201172 15.21822266 -8.28652344 14.56144531 -7.95117188 13.88476562 C-5.87197543 9.53345759 -5.00746522 5.75774462 -4.375 0.9375 C-2.375 -0.0625 -2.375 -0.0625 0 0 Z M-0.375 8.9375 C-1.58301248 11.13662496 -2.76581947 13.34411819 -3.9375 15.5625 C-4.27974609 16.17996094 -4.62199219 16.79742187 -4.97460938 17.43359375 C-6.5484591 20.45411342 -7.37807896 22.66176179 -7.33984375 26.0859375 C-5.48320069 31.57318216 -1.69786587 34.68626448 2.75 38.1875 C7.56682704 42.03449609 12.12912433 46.07336037 16.62890625 50.28515625 C18.44989585 52.15005342 18.44989585 52.15005342 20.625 51.9375 C20.71196177 48.00013877 20.76537835 44.06302372 20.8125 40.125 C20.83763672 39.00544922 20.86277344 37.88589844 20.88867188 36.73242188 C20.89833984 35.65927734 20.90800781 34.58613281 20.91796875 33.48046875 C20.9336792 32.49071045 20.94938965 31.50095215 20.96557617 30.48120117 C20.56806156 27.51223719 19.82658646 26.84661817 17.625 24.9375 C17.53992188 24.17050781 17.45484375 23.40351562 17.3671875 22.61328125 C16.20518706 18.42396386 13.13710442 16.65687746 9.75 14.125 C9.11191406 13.62291016 8.47382812 13.12082031 7.81640625 12.60351562 C4.14290375 9.66309806 4.14290375 9.66309806 -0.375 8.9375 Z M-13.984375 35.65625 C-19.14490347 38.42202343 -23.11937986 42.08119996 -26.375 46.9375 C-27.35741627 50.75552685 -27.05592672 53.38004781 -25.375 56.9375 C-22.61464378 60.30902999 -19.58543509 62.68275127 -15.171875 63.19140625 C-13.23868842 63.13054667 -11.30664882 63.03571943 -9.375 62.9375 C-8.89804688 63.44023438 -8.42109375 63.94296875 -7.9296875 64.4609375 C-6.47507892 66.18250263 -6.47507892 66.18250263 -4.24609375 65.93359375 C5.11874639 63.99100575 5.11874639 63.99100575 13.625 59.9375 C14.95404963 56.89015695 14.95404963 56.89015695 15.625 53.9375 C11.25181056 50.09957073 6.85775737 46.28881672 2.43652344 42.50634766 C0.98932203 41.25301663 -0.42857223 39.96587228 -1.8359375 38.66796875 C-5.86179332 35.15972297 -8.7485109 33.97198602 -13.984375 35.65625 Z " fill="#4E43A6" transform="translate(99.375,29.0625)"/>
<path d="M0 0 C7 0 7 0 8.89624023 1.28515625 C9.36231689 1.87167969 9.82839355 2.45820312 10.30859375 3.0625 C10.82744141 3.69414063 11.34628906 4.32578125 11.88085938 4.9765625 C12.39455078 5.64429687 12.90824219 6.31203125 13.4375 7 C14.24864258 8.00160156 14.24864258 8.00160156 15.07617188 9.0234375 C16.40296577 10.66725295 17.70410299 12.33171879 19 14 C19.33 9.38 19.66 4.76 20 0 C22.64 0 25.28 0 28 0 C28 9.9 28 19.8 28 30 C21 30 21 30 19.10375977 28.71484375 C18.63768311 28.12832031 18.17160645 27.54179687 17.69140625 26.9375 C17.17255859 26.30585938 16.65371094 25.67421875 16.11914062 25.0234375 C15.60544922 24.35570312 15.09175781 23.68796875 14.5625 23 C14.02173828 22.33226562 13.48097656 21.66453125 12.92382812 20.9765625 C11.59703423 19.33274705 10.29589701 17.66828121 9 16 C8.67 20.62 8.34 25.24 8 30 C5.36 30 2.72 30 0 30 C0 20.1 0 10.2 0 0 Z " fill="#393939" transform="translate(23,117)"/>
<path d="M0 0 C2.84625 -0.0825 5.6925 -0.165 8.625 -0.25 C9.51010254 -0.28641602 10.39520508 -0.32283203 11.30712891 -0.36035156 C16.7007394 -0.43561689 19.72661731 0.40768767 24 4 C26.35062814 7.205402 26.39807915 10.09882438 26 14 C24.58488907 16.83022185 23.23416175 18.76583825 21 21 C21.3609375 21.48210937 21.721875 21.96421875 22.09375 22.4609375 C22.5578125 23.09257812 23.021875 23.72421875 23.5 24.375 C23.9640625 25.00148437 24.428125 25.62796875 24.90625 26.2734375 C26 28 26 28 26 30 C20.79816942 30.61716634 20.79816942 30.61716634 18 30 C16.42832215 28.32982463 15.39474417 26.59592357 14.23046875 24.625 C12.98050934 22.63508622 12.98050934 22.63508622 9.6875 22.0625 C8.800625 22.041875 7.91375 22.02125 7 22 C7 24.64 7 27.28 7 30 C4.69 30 2.38 30 0 30 C0 20.1 0 10.2 0 0 Z M7 6 C7 8.97 7 11.94 7 15 C11.50901363 15.17957899 11.50901363 15.17957899 16 15 C16.66 14.34 17.32 13.68 18 13 C17.90888062 10.46048456 17.90888062 10.46048456 17 8 C13.3558226 5.5705484 11.28758728 5.83820425 7 6 Z " fill="#393939" transform="translate(110,117)"/>
<path d="M0 0 C7.59 0 15.18 0 23 0 C23 1.98 23 3.96 23 6 C18.05 6 13.1 6 8 6 C8 7.98 8 9.96 8 12 C12.29 12 16.58 12 21 12 C21 13.98 21 15.96 21 18 C16.71 18 12.42 18 8 18 C8 19.65 8 21.3 8 23 C12.95 23 17.9 23 23 23 C23 25.31 23 27.62 23 30 C15.41 30 7.82 30 0 30 C0 20.1 0 10.2 0 0 Z " fill="#393939" transform="translate(140,117)"/>
<path d="M0 0 C7.59 0 15.18 0 23 0 C23 1.98 23 3.96 23 6 C18.05 6 13.1 6 8 6 C8 7.98 8 9.96 8 12 C12.29 12 16.58 12 21 12 C21 13.98 21 15.96 21 18 C16.71 18 12.42 18 8 18 C8 19.65 8 21.3 8 23 C12.95 23 17.9 23 23 23 C23 25.31 23 27.62 23 30 C15.41 30 7.82 30 0 30 C0 20.1 0 10.2 0 0 Z " fill="#393939" transform="translate(82,117)"/>
<path d="M0 0 C-0.33 1.65 -0.66 3.3 -1 5 C-1.99 5.33 -2.98 5.66 -4 6 C-4.66 5.67 -5.32 5.34 -6 5 C-7.37342831 4.9310528 -8.75002102 4.91532292 -10.125 4.9375 C-11.40375 4.958125 -12.6825 4.97875 -14 5 C-14.33 5.99 -14.66 6.98 -15 8 C-14.18015625 8.18175781 -13.3603125 8.36351563 -12.515625 8.55078125 C-11.43796875 8.80214844 -10.3603125 9.05351562 -9.25 9.3125 C-8.18265625 9.55613281 -7.1153125 9.79976562 -6.015625 10.05078125 C-3.00589888 10.99814323 -1.20419692 11.75381838 1 14 C1.76277374 17.04548635 1.56757583 19.92284869 1 23 C-0.87620613 25.50160818 -2.23891303 26.61945652 -5 28 C-11.23647099 28.40144948 -17.19207724 28.581299 -23 26 C-22.67 24.02 -22.34 22.04 -22 20 C-19 19 -19 19 -16.6875 19.9375 C-13.62243489 21.14926993 -11.26631039 21.15192141 -8 21 C-8 20.01 -8 19.02 -8 18 C-8.83144531 17.75765625 -9.66289062 17.5153125 -10.51953125 17.265625 C-11.60621094 16.93046875 -12.69289062 16.5953125 -13.8125 16.25 C-14.89144531 15.92515625 -15.97039062 15.6003125 -17.08203125 15.265625 C-20.22354471 13.90304085 -21.35013329 12.95506948 -23 10 C-23.5596596 6.24228551 -23.31700782 4.53647477 -21.375 1.25 C-15.55132543 -4.26716538 -6.56963609 -4.37975739 0 0 Z " fill="#383838" transform="translate(189,119)"/>
<path d="M0 0 C8.58 0 17.16 0 26 0 C26 1.98 26 3.96 26 6 C23.03 6 20.06 6 17 6 C17 13.92 17 21.84 17 30 C14.36 30 11.72 30 9 30 C9 22.08 9 14.16 9 6 C6.03 6 3.06 6 0 6 C0 4.02 0 2.04 0 0 Z " fill="#393939" transform="translate(53,117)"/>
<path d="M0 0 C2.31 0 4.62 0 7 0 C7 9.9 7 19.8 7 30 C4.69 30 2.38 30 0 30 C0 20.1 0 10.2 0 0 Z " fill="#393939" transform="translate(10,117)"/>
<path d="M0 0 C8.19057816 -0.48179872 8.19057816 -0.48179872 11.625 1.5625 C13.5994537 5.06266793 13.05489746 7.20236913 12 11 C8.77208445 13.1519437 7.71599191 13.20086443 4 13 C3.67 14.32 3.34 15.64 3 17 C2.01 17 1.02 17 0 17 C0 11.39 0 5.78 0 0 Z M6 2 C5.01 2.66 4.02 3.32 3 4 C2.66656449 6.54207971 2.66656449 6.54207971 3 9 C4.0595877 10.28322547 4.0595877 10.28322547 6.5 10.125 C8.9404123 10.28322547 8.9404123 10.28322547 10 9 C10.04063832 7.33382885 10.042721 5.66611905 10 4 C8.68 3.34 7.36 2.68 6 2 Z " fill="#8824AF" transform="translate(120,154)"/>
<path d="M0 0 C0.99 0.66 1.98 1.32 3 2 C3 2.66 3 3.32 3 4 C2.37351562 3.97679687 1.74703125 3.95359375 1.1015625 3.9296875 C0.28429687 3.91164062 -0.53296875 3.89359375 -1.375 3.875 C-2.59316406 3.84019531 -2.59316406 3.84019531 -3.8359375 3.8046875 C-6.21342243 3.78629949 -6.21342243 3.78629949 -8 6 C-8.33333333 8.5 -8.33333333 8.5 -8 11 C-6.10244856 13.34973818 -6.10244856 13.34973818 -2.875 13.125 C-1.451875 13.063125 -1.451875 13.063125 0 13 C0.33 11.35 0.66 9.7 1 8 C1.66 8 2.32 8 3 8 C3.1875 11.375 3.1875 11.375 3 15 C-0.51253146 17.34168764 -1.86469356 17.49623677 -6 17 C-9.41639845 15.0260809 -10.72268412 13.81461541 -12 10.0625 C-12 6.39707859 -11.23178648 4.86943977 -9 2 C-5.53001271 -0.31332486 -4.07490752 -0.33957563 0 0 Z " fill="#8823B0" transform="translate(76,150)"/>
<path d="M0 0 C3.4375 0.8125 3.4375 0.8125 5.4375 3.8125 C5.25 7.375 5.25 7.375 4.4375 10.8125 C1.4375 12.8125 1.4375 12.8125 -2.125 12.625 C-5.5625 11.8125 -5.5625 11.8125 -7.5625 8.8125 C-7.375 5.25 -7.375 5.25 -6.5625 1.8125 C-3.5625 -0.1875 -3.5625 -0.1875 0 0 Z M-1.5625 1.8125 C-2.5525 2.4725 -3.5425 3.1325 -4.5625 3.8125 C-4.89593551 6.35457971 -4.89593551 6.35457971 -4.5625 8.8125 C-3.5029123 10.09572547 -3.5029123 10.09572547 -1.0625 9.9375 C1.3779123 10.09572547 1.3779123 10.09572547 2.4375 8.8125 C2.47813832 7.14632885 2.480221 5.47861905 2.4375 3.8125 C1.1175 3.1525 -0.2025 2.4925 -1.5625 1.8125 Z " fill="#8924AF" transform="translate(97.5625,154.1875)"/>
<path d="M0 0 C0.66 0 1.32 0 2 0 C2.33 3.3 2.66 6.6 3 10 C4.65 9.67 6.3 9.34 8 9 C8.33 6.03 8.66 3.06 9 0 C9.99 0 10.98 0 12 0 C12 4.29 12 8.58 12 13 C10.576875 13.061875 9.15375 13.12375 7.6875 13.1875 C6.48673828 13.23970703 6.48673828 13.23970703 5.26171875 13.29296875 C3 13 3 13 1.21875 11.8125 C-0.42341401 9.37030737 -0.30107677 7.72763706 -0.1875 4.8125 C-0.16042969 3.91144531 -0.13335937 3.01039063 -0.10546875 2.08203125 C-0.07066406 1.39496094 -0.03585938 0.70789063 0 0 Z " fill="#8827B0" transform="translate(105,154)"/>
<path d="M0 0 C1.98 0 3.96 0 6 0 C6 0.99 6 1.98 6 3 C5.01 3 4.02 3 3 3 C2.67 6.3 2.34 9.6 2 13 C1.34 13 0.68 13 0 13 C0 8.71 0 4.42 0 0 Z " fill="#8723AF" transform="translate(83,154)"/>
</svg>
